# xmcd
#
# Track frame offsets:
#	300
#	19042
#	42825
#	64577
#	82465
#	99095
#	120035
#	135880
#	158557
#	180512
#
# Disc length: 2641 seconds
#
# Revision: 1
# Processed by: cddbd v1.5.1PL2 Copyright (c) Steve Scherf et al.
# Submitted via: audiograbber 1.83.01
#
DISCID=6a0a4d0a
DTITLE=Narrow Road - More Than I Deserve
DYEAR=1900
DGENRE=Country Gospel
TTITLE0=Narrow Road - Only Because You Loved Me
TTITLE1=Narrow Road - Love Lives On
TTITLE2=Narrow Road - More Than I Deserve
TTITLE3=Narrow Road - The Day He Died
TTITLE4=Narrow Road - More Like You
TTITLE5=Narrow Road - Victory in Jesus
TTITLE6=Narrow Road - Teach Me To Dream
TTITLE7=Narrow Road - There's A Father Near
TTITLE8=Narrow Road - A Love That's True
TTITLE9=Narrow Road - If We Never Meet Again
EXTD=
EXTT0=
EXTT1=
EXTT2=
EXTT3=
EXTT4=
EXTT5=
EXTT6=
EXTT7=
EXTT8=
EXTT9=
PLAYORDER=
